<svg width="46" height="48" viewBox="0 0 46 48" fill="none" xmlns="http://www.w3.org/2000/svg">
<path d="M28.5167 24H19.0111" stroke="black" stroke-width="2" stroke-linecap="round" stroke-linejoin="round"/>
<path d="M28.5167 16H19.0111" stroke="black" stroke-width="2" stroke-linecap="round" stroke-linejoin="round"/>
<path d="M36.1211 34V10C36.1211 8.93913 35.7205 7.92172 35.0074 7.17157C34.2944 6.42143 33.3273 6 32.3189 6H7.60443" stroke="black" stroke-width="2" stroke-linecap="round" stroke-linejoin="round"/>
<path d="M15.2089 42H38.0222C39.0306 42 39.9977 41.5786 40.7108 40.8284C41.4238 40.0783 41.8244 39.0609 41.8244 38V36C41.8244 35.4696 41.6241 34.9609 41.2676 34.5858C40.9111 34.2107 40.4275 34 39.9233 34H20.9122C20.408 34 19.9245 34.2107 19.5679 34.5858C19.2114 34.9609 19.0111 35.4696 19.0111 36V38C19.0111 39.0609 18.6105 40.0783 17.8975 40.8284C17.1844 41.5786 16.2173 42 15.2089 42ZM15.2089 42C14.2005 42 13.2334 41.5786 12.5203 40.8284C11.8073 40.0783 11.4067 39.0609 11.4067 38V10C11.4067 8.93913 11.0061 7.92172 10.293 7.17157C9.57999 6.42143 8.61288 6 7.60447 6C6.59605 6 5.62894 6.42143 4.91589 7.17157C4.20284 7.92172 3.80225 8.93913 3.80225 10V14C3.80225 14.5304 4.00254 15.0391 4.35907 15.4142C4.7156 15.7893 5.19915 16 5.70336 16H11.4067" stroke="black" stroke-width="2" stroke-linecap="round" stroke-linejoin="round"/>
</svg>
