<svg width="130" height="54" viewBox="0 0 130 54" fill="none" xmlns="http://www.w3.org/2000/svg">
<path d="M42.448 36V10.8H51.772C53.788 10.8 55.456 11.136 56.776 11.808C58.096 12.48 59.08 13.404 59.728 14.58C60.376 15.756 60.7 17.076 60.7 18.54C60.7 19.932 60.388 21.216 59.764 22.392C59.14 23.544 58.168 24.48 56.848 25.2C55.528 25.896 53.836 26.244 51.772 26.244H47.056V36H42.448ZM47.056 22.5H51.484C53.092 22.5 54.244 22.152 54.94 21.456C55.66 20.736 56.02 19.764 56.02 18.54C56.02 17.292 55.66 16.32 54.94 15.624C54.244 14.904 53.092 14.544 51.484 14.544H47.056V22.5ZM71.8611 36.432C70.1331 36.432 68.5731 36.036 67.1811 35.244C65.8131 34.452 64.7211 33.36 63.9051 31.968C63.1131 30.552 62.7171 28.92 62.7171 27.072C62.7171 25.224 63.1251 23.604 63.9411 22.212C64.7571 20.796 65.8491 19.692 67.2171 18.9C68.6091 18.108 70.1691 17.712 71.8971 17.712C73.6011 17.712 75.1371 18.108 76.5051 18.9C77.8971 19.692 78.9891 20.796 79.7811 22.212C80.5971 23.604 81.0051 25.224 81.0051 27.072C81.0051 28.92 80.5971 30.552 79.7811 31.968C78.9891 33.36 77.8971 34.452 76.5051 35.244C75.1131 36.036 73.5651 36.432 71.8611 36.432ZM71.8611 32.436C73.0611 32.436 74.1051 31.992 74.9931 31.104C75.8811 30.192 76.3251 28.848 76.3251 27.072C76.3251 25.296 75.8811 23.964 74.9931 23.076C74.1051 22.164 73.0731 21.708 71.8971 21.708C70.6731 21.708 69.6171 22.164 68.7291 23.076C67.8651 23.964 67.4331 25.296 67.4331 27.072C67.4331 28.848 67.8651 30.192 68.7291 31.104C69.6171 31.992 70.6611 32.436 71.8611 32.436ZM92.5052 36.432C90.9212 36.432 89.5292 36.18 88.3292 35.676C87.1292 35.148 86.1692 34.428 85.4492 33.516C84.7292 32.604 84.2972 31.548 84.1532 30.348H88.7972C88.9412 31.044 89.3252 31.644 89.9492 32.148C90.5972 32.628 91.4252 32.868 92.4332 32.868C93.4412 32.868 94.1732 32.664 94.6292 32.256C95.1092 31.848 95.3492 31.38 95.3492 30.852C95.3492 30.084 95.0132 29.568 94.3412 29.304C93.6692 29.016 92.7332 28.74 91.5332 28.476C90.7652 28.308 89.9852 28.104 89.1932 27.864C88.4012 27.624 87.6692 27.324 86.9972 26.964C86.3492 26.58 85.8212 26.1 85.4132 25.524C85.0052 24.924 84.8012 24.192 84.8012 23.328C84.8012 21.744 85.4252 20.412 86.6732 19.332C87.9452 18.252 89.7212 17.712 92.0012 17.712C94.1132 17.712 95.7932 18.204 97.0412 19.188C98.3132 20.172 99.0692 21.528 99.3092 23.256H94.9532C94.6892 21.936 93.6932 21.276 91.9652 21.276C91.1012 21.276 90.4292 21.444 89.9492 21.78C89.4932 22.116 89.2652 22.536 89.2652 23.04C89.2652 23.568 89.6132 23.988 90.3092 24.3C91.0052 24.612 91.9292 24.9 93.0812 25.164C94.3292 25.452 95.4692 25.776 96.5012 26.136C97.5572 26.472 98.3972 26.988 99.0212 27.684C99.6452 28.356 99.9572 29.328 99.9572 30.6C99.9812 31.704 99.6932 32.7 99.0932 33.588C98.4932 34.476 97.6292 35.172 96.5012 35.676C95.3732 36.18 94.0412 36.432 92.5052 36.432ZM111.433 36C109.561 36 108.061 35.544 106.933 34.632C105.805 33.72 105.241 32.1 105.241 29.772V21.996H102.181V18.144H105.241L105.781 13.356H109.849V18.144H114.673V21.996H109.849V29.808C109.849 30.672 110.029 31.272 110.389 31.608C110.773 31.92 111.421 32.076 112.333 32.076H114.565V36H111.433ZM120.609 36.252C119.769 36.252 119.073 35.988 118.521 35.46C117.993 34.932 117.729 34.296 117.729 33.552C117.729 32.784 117.993 32.136 118.521 31.608C119.073 31.08 119.769 30.816 120.609 30.816C121.449 30.816 122.133 31.08 122.661 31.608C123.213 32.136 123.489 32.784 123.489 33.552C123.489 34.296 123.213 34.932 122.661 35.46C122.133 35.988 121.449 36.252 120.609 36.252Z" fill="black"/>
<path d="M28.5167 27H19.0111" stroke="black" stroke-width="2" stroke-linecap="round" stroke-linejoin="round"/>
<path d="M28.5167 19H19.0111" stroke="black" stroke-width="2" stroke-linecap="round" stroke-linejoin="round"/>
<path d="M36.1211 37V13C36.1211 11.9391 35.7205 10.9217 35.0074 10.1716C34.2944 9.42143 33.3273 9 32.3189 9H7.60443" stroke="black" stroke-width="2" stroke-linecap="round" stroke-linejoin="round"/>
<path d="M15.2089 45H38.0222C39.0306 45 39.9977 44.5786 40.7108 43.8284C41.4238 43.0783 41.8244 42.0609 41.8244 41V39C41.8244 38.4696 41.6241 37.9609 41.2676 37.5858C40.9111 37.2107 40.4275 37 39.9233 37H20.9122C20.408 37 19.9245 37.2107 19.5679 37.5858C19.2114 37.9609 19.0111 38.4696 19.0111 39V41C19.0111 42.0609 18.6105 43.0783 17.8975 43.8284C17.1844 44.5786 16.2173 45 15.2089 45ZM15.2089 45C14.2005 45 13.2334 44.5786 12.5203 43.8284C11.8073 43.0783 11.4067 42.0609 11.4067 41V13C11.4067 11.9391 11.0061 10.9217 10.293 10.1716C9.57999 9.42143 8.61288 9 7.60447 9C6.59605 9 5.62894 9.42143 4.91589 10.1716C4.20284 10.9217 3.80225 11.9391 3.80225 13V17C3.80225 17.5304 4.00254 18.0391 4.35907 18.4142C4.7156 18.7893 5.19915 19 5.70336 19H11.4067" stroke="black" stroke-width="2" stroke-linecap="round" stroke-linejoin="round"/>
</svg>
